<?xml version="1.0" encoding="utf-8"?>
<!-- Generator: Adobe Illustrator 16.0.0, SVG Export Plug-In . SVG Version: 6.00 Build 0)  -->
<!DOCTYPE svg PUBLIC "-//W3C//DTD SVG 1.1//EN" "http://www.w3.org/Graphics/SVG/1.1/DTD/svg11.dtd">
<svg version="1.1" id="Layer_1" xmlns="http://www.w3.org/2000/svg" xmlns:xlink="http://www.w3.org/1999/xlink" x="0px" y="0px"
	 width="595.28px" height="841.89px" viewBox="0 0 595.28 841.89" enable-background="new 0 0 595.28 841.89" xml:space="preserve">
<path fill="#C50E41" d="M92.031,439.599c5.609,0,10.157-4.546,10.157-10.156c0-5.607-4.548-10.154-10.157-10.154
	c-5.606,0-10.153,4.547-10.153,10.154C81.878,435.053,86.425,439.599,92.031,439.599"/>
<polygon fill="#FFFFFF" points="91.629,424.988 91.629,433.89 94.462,433.89 94.462,433.094 92.44,433.094 92.44,424.988 "/>
<path fill="#FFFFFF" d="M88.79,427.417c0.673,0,1.218-0.546,1.218-1.219c0-0.671-0.545-1.215-1.218-1.215
	c-0.671,0-1.216,0.544-1.216,1.215C87.574,426.872,88.119,427.417,88.79,427.417"/>
<path fill="#FFFFFF" d="M92.44,420.947c-0.106-0.007-0.308-0.008-0.409-0.008c-4.685,0-8.499,3.816-8.499,8.503
	c0,2.27,0.885,4.406,2.489,6.011c1.607,1.606,3.742,2.49,6.01,2.49c2.273,0,4.407-0.884,6.016-2.49
	c1.602-1.604,2.488-3.741,2.488-6.011v-0.388l-0.341,0.001h-5.73v0.791h5.261v0.117c-0.271,4.007-3.615,7.186-7.693,7.186
	c-2.056,0-3.99-0.804-5.446-2.259c-1.457-1.454-2.258-3.392-2.258-5.448c0-2.059,0.801-3.993,2.258-5.45
	c1.456-1.456,3.391-2.258,5.446-2.258c0.093,0,0.312,0.002,0.409,0.007V420.947z"/>
<polygon fill="#FFFFFF" points="109.639,422.699 106.581,422.699 106.581,435.928 115.969,435.928 115.969,433.352 109.639,433.352 
	"/>
<path fill="#FFFFFF" d="M122.693,430.885h2.489v2.314c-0.458,0.174-1.353,0.348-2.204,0.348c-2.752,0-3.669-1.396-3.669-4.234
	c0-2.706,0.874-4.3,3.624-4.3c1.529,0,2.402,0.479,3.123,1.396l1.9-1.746c-1.158-1.659-3.188-2.161-5.088-2.161
	c-4.279,0-6.529,2.335-6.529,6.789c0,4.434,2.03,6.834,6.508,6.834c2.052,0,4.062-0.523,5.152-1.288v-6.419h-5.307V430.885z"/>
<path fill="#FFFFFF" d="M183.061,425.269v-2.77h-2.333v7.376h2.159c0.145-0.671,0.174-1.473,0.174-2.099v-0.569h2.244v-1.938
	H183.061z"/>
<path fill="#FFFFFF" d="M141.125,424.876h-0.963v-2.362h-2.187v7.056h1.954c0.16-0.466,0.232-1.355,0.232-1.881v-0.962h0.963v3.337
	h1.996c0.189-0.523,0.248-1.588,0.248-2.258V422.5h-2.244V424.876z"/>
<path fill="#FFFFFF" d="M138.651,430.156c-3.438,0-4.468,1.428-4.468,3.048c0,1.666,1.03,3.049,4.468,3.049
	c3.498,0,4.559-1.383,4.559-3.049C143.21,431.583,142.149,430.156,138.651,430.156 M138.666,434.527
	c-1.404,0-2.023-0.49-2.023-1.323c0-0.772,0.619-1.293,2.023-1.293c1.437,0,2.039,0.521,2.039,1.293
	C140.705,434.037,140.103,434.527,138.666,434.527"/>
<path fill="#FFFFFF" d="M151.087,423.856v-1.549h-1.539c-0.766,0-1.913-0.177-2.646-0.437l-0.32,1.65
	c0.875,0.262,1.88,0.335,2.799,0.335H151.087z"/>
<path fill="#FFFFFF" d="M136.723,429.715l1.123-1.822c-1.853-0.815-2.552-1.88-2.552-4.096v-1.063h-2.288v1.078
	c0,2.507-0.382,3.646-2.393,4.609l0.815,1.559c1.21-0.424,2.335-1.212,2.917-2.248C134.784,428.623,135.819,429.423,136.723,429.715
	"/>
<path fill="#FFFFFF" d="M178.673,425.211v-2.464h-6.516v1.866h4.11v0.816c0,1.282-1.385,2.448-4.533,3.746l0.787,1.646
	C176.881,429.015,178.673,427.63,178.673,425.211"/>
<path fill="#FFFFFF" d="M163.761,433.884v-3.037h-2.435v4.028c0,0.831,0.423,1.225,1.254,1.225h8.23v-1.968h-6.803
	C163.819,434.132,163.761,434.088,163.761,433.884"/>
<path fill="#FFFFFF" d="M165.05,427.222h2.941v5.03h2.157c0.176-0.715,0.277-1.953,0.277-2.8V422.5h-2.435v2.77h-2.449v-2.565
	h-6.559v1.866h4.184v0.904c0,1.253-1.496,2.52-4.587,3.803l0.816,1.603C162.406,429.613,164.24,428.626,165.05,427.222"/>
<path fill="#FFFFFF" d="M149.637,434.379v-0.299h6.103c0.248-0.378,0.306-1.14,0.306-1.854v-1.45h-8.727v1.444h6.409v0.505h-6.409
	v2.516c0,0.597,0.277,0.902,1.021,0.902h8.128v-1.56h-6.582C149.695,434.583,149.637,434.555,149.637,434.379"/>
<path fill="#FFFFFF" d="M178.789,430.037c-3.192,0-4.183,1.457-4.183,3.119c0,1.705,0.99,3.104,4.183,3.104
	c3.266,0,4.271-1.399,4.271-3.104C183.061,431.494,182.055,430.037,178.789,430.037 M178.805,434.569
	c-1.195,0-1.822-0.496-1.822-1.413c0-0.86,0.627-1.399,1.822-1.399c1.224,0,1.836,0.539,1.836,1.399
	C180.641,434.073,180.028,434.569,178.805,434.569"/>
<path fill="#FFFFFF" d="M156.045,422.5h-2.317v5.668c-0.962,0.481-2.335,0.642-3.487,0.642v-0.362
	c1.229-0.241,1.778-0.885,1.778-1.802c0-0.249-0.061-0.479-0.172-0.685h1.35V424.4h-8.477v1.561h1.466
	c-0.111,0.206-0.172,0.436-0.172,0.685c0,0.94,0.594,1.593,1.88,1.82v0.344h-3.174v1.53h4.839c1.604,0,3.324-0.176,4.169-0.642
	v0.539h2.317v-2.767h2.085v-1.953h-2.085V422.5z M148.098,426.567c0-0.437,0.296-0.655,0.904-0.655c0.593,0,0.874,0.219,0.874,0.655
	c0,0.438-0.328,0.673-0.921,0.673C148.347,427.24,148.098,427.004,148.098,426.567"/>
</svg>
